<svg width="103" height="103" viewBox="0 0 103 103" fill="none" xmlns="http://www.w3.org/2000/svg">
<rect width="103" height="103" rx="19.1628" fill="black"/>
<path d="M32.941 25.8659H39.1641C40.839 25.8659 42.3218 26.2116 43.6125 26.9031C44.9186 27.5945 45.9251 28.5549 46.6319 29.7842C47.3541 30.9981 47.7152 32.381 47.7152 33.9329C47.7152 35.4849 47.3541 36.8755 46.6319 38.1048C45.9251 39.3187 44.9186 40.2713 43.6125 40.9628C42.3218 41.6543 40.839 42 39.1641 42H32.941V25.8659ZM39.118 41.2855C40.6854 41.2855 42.0529 40.9705 43.2207 40.3405C44.4039 39.7105 45.3182 38.8423 45.9635 37.736C46.6089 36.6143 46.9316 35.3466 46.9316 33.9329C46.9316 32.5193 46.6089 31.2593 45.9635 30.1529C45.3182 29.0312 44.4039 28.1554 43.2207 27.5254C42.0529 26.8954 40.6854 26.5804 39.118 26.5804H33.7246V41.2855H39.118Z" fill="white"/>
<path d="M48.3543 64.2805L48.3312 49.7368L41.2552 62.0448H40.8404L33.7413 49.7829V64.2805H32.9807V48.1464H33.6261L41.0478 61.0537L48.4465 48.1464H49.0918L49.1149 64.2805H48.3543Z" fill="white"/>
<path d="M61.3969 42.0922C59.8296 42.0922 58.4083 41.7388 57.1329 41.032C55.8729 40.3251 54.8818 39.3494 54.1596 38.1048C53.4374 36.8601 53.0763 35.4695 53.0763 33.9329C53.0763 32.3964 53.4374 31.0057 54.1596 29.7611C54.8818 28.5165 55.8729 27.5407 57.1329 26.8339C58.4083 26.1271 59.8296 25.7737 61.3969 25.7737C62.9643 25.7737 64.3856 26.1271 65.661 26.8339C66.9363 27.5407 67.9351 28.5165 68.6573 29.7611C69.3795 31.0057 69.7406 32.3964 69.7406 33.9329C69.7406 35.4695 69.3795 36.8601 68.6573 38.1048C67.9351 39.3494 66.9363 40.3251 65.661 41.032C64.3856 41.7388 62.9643 42.0922 61.3969 42.0922ZM61.3969 41.3777C62.8106 41.3777 64.0936 41.055 65.2461 40.4096C66.3985 39.7643 67.3051 38.8731 67.9658 37.736C68.6266 36.5989 68.9569 35.3312 68.9569 33.9329C68.9569 32.5346 68.6266 31.267 67.9658 30.1299C67.3051 28.9928 66.3985 28.1016 65.2461 27.4562C64.0936 26.8109 62.8106 26.4882 61.3969 26.4882C59.9833 26.4882 58.7002 26.8109 57.5478 27.4562C56.4107 28.1016 55.5118 28.9928 54.8511 30.1299C54.1904 31.267 53.86 32.5346 53.86 33.9329C53.86 35.3312 54.1904 36.5989 54.8511 37.736C55.5118 38.8731 56.4107 39.7643 57.5478 40.4096C58.7002 41.055 59.9833 41.3777 61.3969 41.3777Z" fill="white"/>
<path d="M53.1891 23.8497V23.066H69.3232V23.8497H53.1891Z" fill="white"/>
<path d="M61.3969 64.3727C59.8296 64.3727 58.4083 64.0193 57.1329 63.3125C55.8729 62.6056 54.8818 61.6299 54.1596 60.3853C53.4374 59.1406 53.0763 57.75 53.0763 56.2135C53.0763 54.6769 53.4374 53.2863 54.1596 52.0416C54.8818 50.797 55.8729 49.8213 57.1329 49.1144C58.4083 48.4076 59.8296 48.0542 61.3969 48.0542C62.9643 48.0542 64.3856 48.4076 65.661 49.1144C66.9363 49.8213 67.9351 50.797 68.6573 52.0416C69.3795 53.2863 69.7406 54.6769 69.7406 56.2135C69.7406 57.75 69.3795 59.1406 68.6573 60.3853C67.9351 61.6299 66.9363 62.6056 65.661 63.3125C64.3856 64.0193 62.9643 64.3727 61.3969 64.3727ZM61.3969 63.6582C62.8106 63.6582 64.0936 63.3355 65.2461 62.6902C66.3985 62.0448 67.3051 61.1536 67.9658 60.0165C68.6266 58.8794 68.9569 57.6117 68.9569 56.2135C68.9569 54.8152 68.6266 53.5475 67.9658 52.4104C67.3051 51.2733 66.3985 50.3821 65.2461 49.7368C64.0936 49.0914 62.8106 48.7687 61.3969 48.7687C59.9833 48.7687 58.7002 49.0914 57.5478 49.7368C56.4107 50.3821 55.5118 51.2733 54.8511 52.4104C54.1904 53.5475 53.86 54.8152 53.86 56.2135C53.86 57.6117 54.1904 58.8794 54.8511 60.0165C55.5118 61.1536 56.4107 62.0448 57.5478 62.6902C58.7002 63.3355 59.9833 63.6582 61.3969 63.6582Z" fill="white"/>
<path d="M53.1891 46.1301V45.3464H69.3232V46.1301H53.1891Z" fill="white"/>
<path d="M24.5593 73.2804H25.0817V80.4511H24.5593V73.2804ZM30.9558 80.0106V80.4511H26.7046V80.1028L30.2285 75.5443H26.7558V75.1038H30.8943V75.4521L27.3602 80.0106H30.9558ZM34.2178 75.0628C34.8802 75.0628 35.389 75.2336 35.7441 75.575C36.0992 75.9097 36.2768 76.4048 36.2768 77.0604V80.4511H35.7851V79.4984C35.6143 79.8126 35.3651 80.0584 35.0373 80.236C34.7095 80.4067 34.3168 80.4921 33.8592 80.4921C33.2651 80.4921 32.7939 80.3521 32.4456 80.0721C32.1041 79.7921 31.9334 79.4233 31.9334 78.9657C31.9334 78.5218 32.0904 78.1633 32.4046 77.8901C32.7256 77.6101 33.2343 77.4701 33.9309 77.4701H35.7646V77.0399C35.7646 76.5414 35.628 76.1623 35.3548 75.9028C35.0885 75.6433 34.6958 75.5136 34.1768 75.5136C33.8217 75.5136 33.4802 75.575 33.1524 75.6979C32.8314 75.8209 32.5582 75.9848 32.3329 76.1897L32.0768 75.8209C32.3431 75.5818 32.6641 75.3975 33.0397 75.2677C33.4153 75.1311 33.808 75.0628 34.2178 75.0628ZM33.9309 80.0721C34.3748 80.0721 34.7504 79.9696 35.0577 79.7648C35.3719 79.5599 35.6075 79.2628 35.7646 78.8736V77.8697H33.9412C33.4153 77.8697 33.0329 77.9653 32.7939 78.1565C32.5617 78.3477 32.4456 78.6106 32.4456 78.9453C32.4456 79.2936 32.5753 79.5701 32.8348 79.775C33.0943 79.9731 33.4597 80.0721 33.9309 80.0721ZM40.2156 77.5931L38.8225 78.8633V80.4511H38.3103V72.8501H38.8225V78.2282L42.2439 75.1038H42.8995L40.5947 77.2653L43.1249 80.4511H42.4898L40.2156 77.5931ZM45.9586 75.0628C46.621 75.0628 47.1298 75.2336 47.4849 75.575C47.8401 75.9097 48.0176 76.4048 48.0176 77.0604V80.4511H47.5259V79.4984C47.3552 79.8126 47.1059 80.0584 46.7781 80.236C46.4503 80.4067 46.0576 80.4921 45.6001 80.4921C45.0059 80.4921 44.5347 80.3521 44.1864 80.0721C43.845 79.7921 43.6742 79.4233 43.6742 78.9657C43.6742 78.5218 43.8313 78.1633 44.1454 77.8901C44.4664 77.6101 44.9752 77.4701 45.6718 77.4701H47.5054V77.0399C47.5054 76.5414 47.3689 76.1623 47.0957 75.9028C46.8293 75.6433 46.4367 75.5136 45.9176 75.5136C45.5625 75.5136 45.221 75.575 44.8932 75.6979C44.5723 75.8209 44.2991 75.9848 44.0737 76.1897L43.8176 75.8209C44.084 75.5818 44.405 75.3975 44.7806 75.2677C45.1562 75.1311 45.5489 75.0628 45.9586 75.0628ZM45.6718 80.0721C46.1157 80.0721 46.4913 79.9696 46.7986 79.7648C47.1128 79.5599 47.3484 79.2628 47.5054 78.8736V77.8697H45.682C45.1562 77.8697 44.7737 77.9653 44.5347 78.1565C44.3025 78.3477 44.1864 78.6106 44.1864 78.9453C44.1864 79.2936 44.3162 79.5701 44.5757 79.775C44.8352 79.9731 45.2006 80.0721 45.6718 80.0721ZM54.2433 75.1038L51.4979 81.1784C51.293 81.6496 51.054 81.9843 50.7808 82.1823C50.5145 82.3804 50.1969 82.4794 49.8282 82.4794C49.5823 82.4794 49.3501 82.4384 49.1316 82.3565C48.9199 82.2745 48.7389 82.155 48.5886 81.9979L48.8447 81.6087C49.1179 81.8887 49.4491 82.0287 49.8384 82.0287C50.0979 82.0287 50.3199 81.957 50.5043 81.8135C50.6886 81.6701 50.8594 81.4243 51.0164 81.076L51.3033 80.4306L48.896 75.1038H49.4389L51.5799 79.8877L53.7208 75.1038H54.2433ZM56.9292 75.0628C57.5916 75.0628 58.1004 75.2336 58.4555 75.575C58.8106 75.9097 58.9882 76.4048 58.9882 77.0604V80.4511H58.4965V79.4984C58.3258 79.8126 58.0765 80.0584 57.7487 80.236C57.4209 80.4067 57.0282 80.4921 56.5706 80.4921C55.9765 80.4921 55.5053 80.3521 55.157 80.0721C54.8155 79.7921 54.6448 79.4233 54.6448 78.9657C54.6448 78.5218 54.8019 78.1633 55.116 77.8901C55.437 77.6101 55.9458 77.4701 56.6423 77.4701H58.476V77.0399C58.476 76.5414 58.3394 76.1623 58.0662 75.9028C57.7999 75.6433 57.4072 75.5136 56.8882 75.5136C56.5331 75.5136 56.1916 75.575 55.8638 75.6979C55.5428 75.8209 55.2697 75.9848 55.0443 76.1897L54.7882 75.8209C55.0545 75.5818 55.3755 75.3975 55.7511 75.2677C56.1267 75.1311 56.5194 75.0628 56.9292 75.0628ZM56.6423 80.0721C57.0862 80.0721 57.4619 79.9696 57.7692 79.7648C58.0833 79.5599 58.3189 79.2628 58.476 78.8736V77.8697H56.6526C56.1267 77.8697 55.7443 77.9653 55.5053 78.1565C55.2731 78.3477 55.157 78.6106 55.157 78.9453C55.157 79.2936 55.2867 79.5701 55.5462 79.775C55.8058 79.9731 56.1711 80.0721 56.6423 80.0721ZM68.0012 76.7531C68.5134 76.8487 68.9027 77.0501 69.169 77.3575C69.4422 77.6648 69.5788 78.0643 69.5788 78.556C69.5788 79.1638 69.3568 79.6316 68.9129 79.9594C68.469 80.2872 67.81 80.4511 66.9359 80.4511H63.7398V73.2804H66.731C67.5095 73.2804 68.1139 73.4409 68.5441 73.7619C68.9812 74.076 69.1998 74.5267 69.1998 75.114C69.1998 75.5238 69.0905 75.8687 68.8719 76.1487C68.6602 76.4287 68.37 76.6301 68.0012 76.7531ZM64.2622 73.7311V76.5892H66.7105C67.3388 76.5892 67.8202 76.4697 68.1549 76.2306C68.4963 75.9848 68.6671 75.6262 68.6671 75.155C68.6671 74.6906 68.4963 74.3389 68.1549 74.0999C67.8202 73.854 67.3388 73.7311 66.7105 73.7311H64.2622ZM66.9359 80.0004C67.6324 80.0004 68.1583 79.8809 68.5134 79.6418C68.8754 79.396 69.0563 79.0204 69.0563 78.515C69.0563 78.0097 68.8754 77.6375 68.5134 77.3984C68.1583 77.1594 67.6324 77.0399 66.9359 77.0399H64.2622V80.0004H66.9359ZM73.0049 75.0628C73.6673 75.0628 74.1761 75.2336 74.5312 75.575C74.8863 75.9097 75.0639 76.4048 75.0639 77.0604V80.4511H74.5722V79.4984C74.4015 79.8126 74.1522 80.0584 73.8244 80.236C73.4966 80.4067 73.1039 80.4921 72.6463 80.4921C72.0522 80.4921 71.581 80.3521 71.2327 80.0721C70.8912 79.7921 70.7205 79.4233 70.7205 78.9657C70.7205 78.5218 70.8776 78.1633 71.1917 77.8901C71.5127 77.6101 72.0215 77.4701 72.718 77.4701H74.5517V77.0399C74.5517 76.5414 74.4151 76.1623 74.1419 75.9028C73.8756 75.6433 73.4829 75.5136 72.9639 75.5136C72.6088 75.5136 72.2673 75.575 71.9395 75.6979C71.6185 75.8209 71.3454 75.9848 71.12 76.1897L70.8639 75.8209C71.1302 75.5818 71.4512 75.3975 71.8268 75.2677C72.2024 75.1311 72.5951 75.0628 73.0049 75.0628ZM72.718 80.0721C73.162 80.0721 73.5376 79.9696 73.8449 79.7648C74.159 79.5599 74.3946 79.2628 74.5517 78.8736V77.8697H72.7283C72.2024 77.8697 71.82 77.9653 71.581 78.1565C71.3488 78.3477 71.2327 78.6106 71.2327 78.9453C71.2327 79.2936 71.3624 79.5701 71.622 79.775C71.8815 79.9731 72.2468 80.0721 72.718 80.0721ZM77.5891 76.2716C77.753 75.8823 78.0091 75.5853 78.3574 75.3804C78.7057 75.1687 79.1291 75.0628 79.6276 75.0628V75.5648L79.5047 75.5545C78.9106 75.5545 78.4462 75.7423 78.1115 76.1179C77.7769 76.4867 77.6096 77.0023 77.6096 77.6648V80.4511H77.0974V75.1038H77.5891V76.2716Z" fill="white"/>
</svg>
